<?xml version="1.0" encoding="utf-8"?>
<!-- Generator: Adobe Illustrator 19.2.1, SVG Export Plug-In . SVG Version: 6.00 Build 0)  -->
<svg version="1.1" id="Layer_1" xmlns="http://www.w3.org/2000/svg" xmlns:xlink="http://www.w3.org/1999/xlink" x="0px" y="0px"
	 viewBox="0 0 18 18" style="enable-background:new 0 0 18 18;" xml:space="preserve">
<style type="text/css">
	.st0{fill:none;stroke:#FFFFFF;stroke-miterlimit:10;}
	.st1{fill:none;stroke:#3867C8;stroke-width:1;stroke-miterlimit:10;}
	.st2{fill:#3867C8;}
</style>
<path class="st0" d="M8.8,14.4"/>
<g>
	<path class="st1" d="M1,15c0,1.1,0.9,2,2,2h12c1.1,0,2-0.9,2-2V3c0-1.1-0.9-2-2-2H3C1.9,1,1,1.9,1,3V15z"/>
</g>
<g>
	<path class="st2" d="M3.1,10.9c-0.1-0.1-0.2-0.2-0.3-0.3c-0.1-0.1-0.1-0.1-0.1-0.2c0-0.1,0.1-0.2,0.2-0.3C3,10,3.1,10,3.3,9.9
		c0.2-0.1,0.3-0.1,0.5-0.2C4,9.6,4.2,9.6,4.3,9.6s0.3,0,0.5,0.1C4.9,9.7,5,9.8,5.1,9.9c0.5,0.5,0.9,0.9,1.2,1.4
		c0.3,0.5,0.7,0.9,1.1,1.4c0.3-0.9,0.7-1.6,1-2.4C8.8,9.5,9.2,8.7,9.6,8s0.9-1.5,1.3-2.2c0.4-0.7,0.9-1.5,1.4-2.2
		c0.2-0.3,0.5-0.5,0.9-0.6c0.4-0.1,0.9-0.2,1.5-0.2c0.2,0,0.3,0,0.5,0.1c0.1,0.1,0.1,0.1,0.1,0.2c0,0.1,0,0.1-0.1,0.2
		c-0.1,0.1-0.1,0.2-0.2,0.2c-1.3,1.7-2.5,3.5-3.6,5.4s-2,3.9-2.8,6c-0.1,0.2-0.2,0.3-0.4,0.3c-0.1,0-0.5,0.1-0.8,0.1
		c-0.2,0-0.3,0-0.5,0c-0.1,0-0.2-0.1-0.3-0.1c-0.1-0.1-0.2-0.1-0.2-0.1C6.4,15,6.3,15,6.3,14.9c-0.2-0.4-0.5-0.7-0.7-1.1
		c-0.2-0.3-0.5-0.6-0.7-1C4.5,12.5,4.3,12.2,4,12C3.8,11.7,3.4,11.3,3.1,10.9z"/>
</g>
</svg>
