<?xml version="1.0" encoding="utf-8"?>
<!-- Generator: Adobe Illustrator 19.2.1, SVG Export Plug-In . SVG Version: 6.00 Build 0)  -->
<svg version="1.1" id="Layer_1" xmlns="http://www.w3.org/2000/svg" xmlns:xlink="http://www.w3.org/1999/xlink" x="0px" y="0px"
	 viewBox="0 0 22 22" style="enable-background:new 0 0 22 22;" xml:space="preserve">
<style type="text/css">
	.st0{fill:#7d746d;}
</style>
<path class="st0" d="M5.2,11.2C4.4,10.1,4,8.8,4,7.3C4,3.3,7.3,0,11.4,0s7.3,3.3,7.3,7.3c0,1.5-0.4,2.8-1.1,3.9L11.4,22L5.2,11.2z
	 M15.5,7.3c0-2.3-1.9-4.2-4.2-4.2S7.2,5.1,7.2,7.3c0,0.8,0.2,1.5,0.7,2.2c0.7,1.1,2,2,3.5,2s2.8-0.7,3.5-2
	C15.3,8.9,15.5,8.1,15.5,7.3z"/>
</svg>
