<?xml version="1.0" encoding="utf-8"?>
<!-- Generator: Adobe Illustrator 19.1.0, SVG Export Plug-In . SVG Version: 6.00 Build 0)  -->
<svg version="1.1" id="Layer_1" xmlns="http://www.w3.org/2000/svg" xmlns:xlink="http://www.w3.org/1999/xlink" x="0px" y="0px"
	 viewBox="0 0 788.1 910" style="enable-background:new 0 0 788.1 910;" xml:space="preserve">
<style type="text/css">
	.st0{fill:#EAE8E6;}
	.st1{fill:none;stroke:#968C83;stroke-miterlimit:10;}
	.st2{fill:none;stroke:#968C83;stroke-width:3;stroke-linecap:round;stroke-miterlimit:10;}
	.st3{fill:none;stroke:#968C83;stroke-width:3;stroke-linecap:round;stroke-miterlimit:10;stroke-dasharray:5.9991,7.9988;}
	.st4{fill:#FE5000;}
	.st5{fill:#414042;}
	.st6{fill:#968C83;}
</style>
<g>
	<polygon class="st0" points="788.1,682.5 394,910 0,682.5 0,227.5 394,0 788.1,227.5 	"/>
	<line class="st1" x1="39.4" y1="249.3" x2="745.3" y2="249.3"/>
	<line class="st1" x1="39.4" y1="658.3" x2="745.3" y2="658.3"/>
	<g>
		<g>
			<path class="st2" d="M199.4,515.2c-0.9,0.5-1.8,0.9-2.7,1.4"/>
			<path class="st3" d="M189.4,519.7c-45.1,16.7-80.4-17.8-117.1-6.4c-15.7,4.9-21.7,10.8-30,25.5c-8.3,14.8-6.3,36.1,4.1,49.3
				c6.5,8.3,21.1,17.8,30.8,21.4c63.1,23.4,120.1,1.3,180.2-41.2c19.5-13.8,24.6-16.3,45-28.7c17.6-10.7,47.5-15.5,70.3,5.8
				c4.3,4,17.9,17.5,22.2,21.6c4.2,4,22.9,24.1,34.1,30.3c35.8,19.7,72,17.2,100.4-22.3c23.4-32.4,28.4-74.6,67.4-78
				c8.3-0.7,23.7,4.6,39.9,15.5c9.4,6.3,27.8,17.5,43.7,11.4"/>
			<path class="st2" d="M684.1,522.2c0.8-0.5,1.7-1,2.5-1.6"/>
		</g>
	</g>
	<path class="st4" d="M661.5,467.6c-3.2-5.1-5-11.1-5-17.6c0-18.3,14.8-33.1,33.1-33.1c18.3,0,33.1,14.8,33.1,33.1
		c0,6.5-1.8,12.5-5,17.6l-28,48.6C689.5,516.2,661.5,467.6,661.5,467.6z M708.1,450.1c0-10.3-8.3-18.6-18.6-18.6
		c-10.3,0-18.6,8.3-18.6,18.6c0,3.6,1,7,2.8,9.9c3.3,5.2,9.1,8.7,15.7,8.7c6.6,0,12.5-3.5,15.7-8.7
		C707.1,457.1,708.1,453.7,708.1,450.1z"/>
	<g>
		<g>
			<path class="st5" d="M131,509.1v-17.4H98.6v-13l36.9-46.4h10v46.3h9.5v13.1h-9.5v17.4H131z M113.3,478.6h19.4v-24.5L113.3,478.6z
				"/>
			<path class="st5" d="M197.1,510.2c-5.5-0.1-10.3-1.3-14.5-3.7c-4.2-2.4-7.6-5.5-10.4-9.3c-2.8-3.8-4.9-8-6.3-12.6
				c-1.4-4.6-2.1-9-2.1-13.4c0-4.6,0.8-9.3,2.3-13.9c1.6-4.7,3.8-8.8,6.7-12.6c2.9-3.7,6.4-6.7,10.5-9c4.1-2.3,8.7-3.5,13.9-3.5
				c5.5,0,10.3,1.2,14.5,3.7c4.2,2.5,7.7,5.6,10.5,9.5c2.8,3.8,4.9,8,6.3,12.6c1.4,4.6,2.1,9,2.1,13.2c0,4.7-0.8,9.3-2.3,14
				c-1.6,4.6-3.8,8.8-6.7,12.5c-2.9,3.7-6.4,6.7-10.5,9C207,509.1,202.3,510.2,197.1,510.2z M178.9,471.2c0.1,3,0.5,6.1,1.2,9.1
				c0.8,3,1.9,5.8,3.4,8.3c1.5,2.5,3.4,4.5,5.6,6.1c2.3,1.6,5,2.3,8.1,2.3c3.2,0,6-0.8,8.3-2.5c2.3-1.7,4.2-3.8,5.7-6.3
				c1.5-2.6,2.6-5.3,3.3-8.3c0.7-3,1.1-5.9,1.1-8.6c0-3-0.4-6.1-1.2-9.1c-0.8-3-1.9-5.8-3.5-8.3c-1.5-2.5-3.4-4.5-5.7-6.1
				c-2.3-1.6-5-2.3-8-2.3c-3.2,0-5.9,0.8-8.2,2.5c-2.3,1.7-4.2,3.8-5.7,6.3c-1.5,2.6-2.6,5.4-3.3,8.4
				C179.2,465.7,178.9,468.6,178.9,471.2z"/>
			<path class="st5" d="M270.3,509.1v-17.4H238v-13l36.9-46.4h10v46.3h9.5v13.1h-9.5v17.4H270.3z M252.6,478.6h19.4v-24.5
				L252.6,478.6z"/>
		</g>
	</g>
	<g>
		<path class="st6" d="M429.2,359l-9.8,6l1.1,86.9l9.2,0.3l9.7-0.1l-1.3-87.2L429.2,359z M437.1,450l-7.4,0.1l-7.1-0.3l-0.5-42
			l14.4-0.1L437.1,450z"/>
		<path class="st6" d="M495.4,419.8c2.7-13,1.8-27-3.5-40.2c-5.1-12.8-13.7-23.2-24.1-30.7l75-30.1l-2.8-7L460,344
			c-17.6-9.4-39-11.2-58.9-3.2c-35.7,14.3-53.1,55.1-38.8,90.8c14.4,35.7,55.1,53.1,90.8,38.8c19.3-7.8,33.3-23.2,39.7-41.5l82.1-33
			l-2.8-7L495.4,419.8z M492.6,411.9c0,0.2,0,0.3-0.1,0.5l-6.6-0.7c0-0.1,0-0.3,0.1-0.4c0.2-2.3,0.3-4.6,0.3-6.9l6.7-0.1
			C493,406.8,492.9,409.4,492.6,411.9z M490.7,388.9c0.7,2.5,1.2,5.1,1.5,7.6c0,0,0,0,0,0.1l-6.6,0.9c0,0,0,0,0,0
			c-0.3-2.3-0.8-4.5-1.4-6.8c0-0.1-0.1-0.2-0.1-0.3l6.5-1.7C490.7,388.6,490.7,388.7,490.7,388.9z M485.1,374.5
			c1.1,2.1,2.2,4.3,3.1,6.6c0,0,0,0.1,0,0.1l-6.2,2.5c0,0,0,0,0-0.1c-0.8-2-1.8-4-2.8-5.9c-0.1-0.2-0.2-0.4-0.4-0.6l5.9-3.2
			C484.8,374,485,374.3,485.1,374.5z M475.5,361c0.3,0.3,0.5,0.5,0.8,0.8c1.5,1.7,3,3.6,4.3,5.5l-5.5,3.9c-1.2-1.7-2.5-3.3-3.9-4.9
			c-0.2-0.3-0.5-0.5-0.7-0.8L475.5,361z M463.4,350.8c0.4,0.3,0.9,0.5,1.3,0.8c1.8,1.3,3.5,2.6,5.2,4.1l-4.4,5.1
			c-1.5-1.3-3-2.5-4.7-3.6c-0.4-0.3-0.8-0.5-1.2-0.8L463.4,350.8z M449.3,343.7c0.6,0.2,1.2,0.4,1.7,0.6c1.9,0.8,3.8,1.6,5.7,2.6
			l-3,5.9c-1.7-0.8-3.4-1.6-5.1-2.3c-0.5-0.2-1.1-0.4-1.6-0.6L449.3,343.7z M467.6,370.2l-43.1-18.4
			C440.9,351.1,456.9,357.9,467.6,370.2z M433.9,340.2c0.7,0.1,1.5,0.1,2.2,0.2c2,0.3,3.9,0.7,5.8,1.1l-1.5,6.5
			c-1.7-0.4-3.4-0.7-5.2-1c-0.7-0.1-1.3-0.1-2-0.2L433.9,340.2z M418.2,340.4c0.8-0.1,1.7-0.2,2.5-0.3c1.9-0.2,3.7-0.3,5.6-0.3
			l0.1,6.7c-1.7,0-3.3,0.1-5,0.3c-0.7,0.1-1.5,0.2-2.2,0.3L418.2,340.4z M402.9,344.4c0.9-0.3,1.8-0.7,2.7-1
			c1.7-0.6,3.4-1.1,5.1-1.5l1.7,6.5c-1.5,0.4-3,0.8-4.5,1.3c-0.8,0.3-1.6,0.6-2.4,0.9L402.9,344.4z M389,351.9
			c2.1-1.5,4.3-2.9,6.6-4.1c0,0,0,0,0,0l3.2,5.9c0,0,0,0,0,0c-2.1,1.1-4,2.4-5.9,3.7c-0.1,0.1-0.1,0.1-0.2,0.2l-3.9-5.4
			C388.8,352.1,388.9,352,389,351.9z M377.5,362.3c1.6-1.9,3.4-3.7,5.2-5.3l4.5,4.9c-1.7,1.5-3.2,3.1-4.7,4.8
			c-0.1,0.1-0.2,0.3-0.4,0.4l-5.1-4.3C377.3,362.6,377.4,362.5,377.5,362.3z M368.8,375.1c1.1-2.1,2.3-4.2,3.6-6.1l5.6,3.7
			c-1.2,1.8-2.3,3.6-3.3,5.5c-0.1,0.3-0.2,0.5-0.4,0.8l-6-3C368.6,375.6,368.7,375.3,368.8,375.1z M363.3,389.5
			c0.6-2.2,1.3-4.4,2-6.5l6.3,2.3c-0.7,1.9-1.3,3.9-1.8,5.9c-0.1,0.4-0.2,0.8-0.3,1.1l-6.5-1.5C363.1,390.3,363.2,389.9,363.3,389.5
			z M361.3,404.8c0-2.2,0.2-4.3,0.4-6.4l6.6,0.7c-0.2,1.9-0.4,3.9-0.4,5.8c0,0.5,0,1,0,1.5l-6.7,0.1
			C361.3,405.9,361.3,405.4,361.3,404.8z M362.9,420.2c-0.5-2-0.8-4-1-6l6.6-0.9c0.2,1.8,0.5,3.6,0.9,5.4c0.1,0.6,0.3,1.2,0.5,1.8
			l-6.5,1.7C363.2,421.5,363,420.8,362.9,420.2z M368.1,434.7c-0.7-1.5-1.4-3-2.1-4.6c-0.1-0.2-0.2-0.4-0.2-0.6l6.2-2.5
			c0.1,0.2,0.1,0.4,0.2,0.6c0.6,1.4,1.2,2.8,1.9,4.1c0.3,0.7,0.7,1.3,1,1.9l-5.9,3.2C368.8,436.2,368.4,435.5,368.1,434.7z
			 M376.5,447.7c-1.1-1.3-2.2-2.8-3.2-4.2l5.4-3.9c0.9,1.3,1.9,2.6,2.9,3.8c0.5,0.7,1.1,1.3,1.7,1.9l-4.9,4.5
			C377.7,449.1,377.1,448.4,376.5,447.7z M387.7,458.3c-1.3-1-2.5-2-3.7-3l4.4-5.1c1.1,1,2.2,1.9,3.4,2.8c0.8,0.6,1.6,1.2,2.4,1.7
			l-3.7,5.6C389.5,459.6,388.6,459,387.7,458.3z M404.6,467.4c-1.2-0.4-2.4-0.9-3.6-1.4c-1.3-0.6-2.6-1.2-3.9-1.9l3-6
			c1.2,0.6,2.4,1.2,3.6,1.7c1,0.4,2.1,0.9,3.2,1.3L404.6,467.4z M385.3,439.5l46.3,19.7C413.8,460.8,396.4,453.3,385.3,439.5z
			 M420.1,471c-1.4-0.2-2.8-0.3-4.3-0.6c-1.3-0.2-2.6-0.5-3.8-0.8l1.5-6.5c1.1,0.3,2.3,0.5,3.4,0.7c1.3,0.2,2.5,0.4,3.8,0.5
			L420.1,471z M436,470.8c-1.6,0.2-3.2,0.4-4.8,0.5c-1.1,0.1-2.3,0.1-3.4,0.1l-0.1-6.7c1,0,2,0,3.1-0.1c1.4-0.1,2.8-0.2,4.3-0.4
			L436,470.8z M451.5,466.8c-1.7,0.7-3.3,1.2-5,1.8c-0.9,0.3-1.9,0.5-2.8,0.8l-1.7-6.5c0.8-0.2,1.7-0.4,2.5-0.7c1.5-0.5,3-1,4.5-1.6
			L451.5,466.8z M460.6,462.3c-0.7,0.4-1.4,0.8-2.1,1.2l-3.2-5.9c0.6-0.3,1.3-0.7,1.9-1c1.5-0.9,2.9-1.9,4.3-2.9l3.9,5.4
			C463.9,460.2,462.3,461.3,460.6,462.3z M462,446.6c-3,2.6-6.4,4.9-10,6.8l-8.9-3.8l0,1.8l6.8,2.9c-0.9,0.4-1.8,0.9-2.7,1.3
			c-4.1,1.6-8.2,2.7-12.3,3.3l-51.5-22c-2.4-3.4-4.5-7.1-6.2-11.2c-0.4-1-0.7-1.9-1-2.9l40.5,17.3l0-1.8l-41.2-17.6
			c-1.1-3.9-1.8-7.9-2-11.8l43.1,18.4l0-1.8l-43.1-18.4c-0.1-3.6,0.2-7.1,0.8-10.6l42.2,18l0-1.8l-41.9-17.8c0.7-3.3,1.7-6.6,3-9.7
			l38.7,16.5l0-1.8l-38-16.2c1.4-3.1,3.1-6.1,5.1-8.8l32.7,14l0-1.8l-31.7-13.5c2.1-2.8,4.6-5.5,7.3-7.9l24.2,10.3l0-1.8l-22.8-9.7
			c3.1-2.6,6.6-4.8,10.3-6.6l12.7,5.4l1.5-0.9l0.2-0.1l-12.4-5.3c0.6-0.3,1.2-0.6,1.8-0.8c4.6-1.8,9.2-2.9,13.9-3.5l7.3,3.1l1.1-0.7
			l2,1.3l2.7,1.8l36,15.3c2.9,3.8,5.3,7.9,7.1,12.5c0.2,0.6,0.4,1.2,0.6,1.8l-35.8-15.3l0,1.8l36.6,15.6c1.3,4,2,8,2.4,12L442.1,385
			l0,1.8l38.8,16.5c0.1,3.6-0.1,7.2-0.6,10.7l-38-16.2l0,1.8l37.7,16.1c-0.7,3.4-1.6,6.6-2.9,9.8l-34.6-14.8l0,1.8l34,14.5
			c-1.4,3.1-3,6.1-4.9,8.9l-28.9-12.3l0,1.8l27.8,11.9c-2.1,2.9-4.5,5.5-7.2,8l-20.5-8.8l0,1.8L462,446.6z M472.9,452.9
			c-0.5,0.4-0.9,0.9-1.4,1.3l-4.5-4.9c0.4-0.4,0.9-0.8,1.3-1.2c1.4-1.3,2.6-2.7,3.8-4.1l5.1,4.3
			C475.8,449.9,474.4,451.4,472.9,452.9z M482.6,440.9c-0.3,0.4-0.5,0.8-0.8,1.2l-5.6-3.7c0.2-0.3,0.5-0.7,0.7-1
			c1.1-1.7,2.1-3.5,3-5.3l6,3C484.9,437,483.8,439,482.6,440.9z M489.3,427c-0.1,0.3-0.2,0.6-0.3,0.9l-6.3-2.3
			c0.1-0.3,0.2-0.5,0.3-0.8c0.7-2.1,1.3-4.1,1.8-6.3l6.5,1.5C490.8,422.4,490.1,424.7,489.3,427z"/>
		<polygon class="st6" points="519.2,335.9 516.5,342.8 545.6,354 498,373.1 500.8,380 548.4,360.9 535.1,389.1 541.8,392.2 
			560.8,351.9 		"/>
		<g>
			<path class="st6" d="M550,274.7c-1.7-4.3-6.7-6.5-11.1-4.7l-215.4,86.6c-4.3,1.7-6.5,6.7-4.7,11.1L375,507.7
				c1.7,4.3,6.2,6.7,9.9,5.2c3.7-1.5,7.9-3.2,9.3-3.7c1.4-0.6,5.5-2.2,9-3.6c3.6-1.4,7.5-3,8.7-3.5c1.2-0.5,5.8-2.3,10.2-4.1
				l179.4-72.1c4.3-1.7,6.5-6.7,4.7-11.1L550,274.7z M420.1,493.4c-4.3,1.7-8.9,3.6-10.2,4.1c-1.2,0.5-5.6,2.3-9.7,3.9
				c-4.1,1.7-8.5,3.4-9.8,4c-1.3,0.5-4,1.6-5.9,2.4s-5-2.1-6.7-6.5l-52.6-130.8c-1.7-4.3,0.4-9.3,4.7-11.1l206.2-82.8
				c4.3-1.7,9.3,0.4,11.1,4.7l52.6,130.8c1.7,4.3-0.4,9.3-4.7,11.1L420.1,493.4z"/>
		</g>
		<path class="st6" d="M580.3,523.5c-1.1-4.5-5.4-8.8-10.8-11.1c-4.3-1.8-13.3-3.8-24.2,2.8c-2.4,1.5-4.6,3.3-6.4,5.3
			c-19.4-8-33.3-4.1-45.7-0.6c-4.4,1.2-8.6,2.4-12.7,3c-8.1,1.1-20.2,2.4-31.9,1.2c-1.8-0.2-3.5-0.4-5.2-0.7l0.1-0.3
			c0.5-1.3-0.2-2.7-1.4-3.1c-0.6-0.2-1.2-0.2-1.8,0.1c-0.3-0.5-0.8-0.9-1.4-1.1c-0.8-0.2-1.6,0-2.2,0.4c-0.2-0.2-0.4-0.3-0.7-0.4
			c-0.7-0.2-1.5-0.1-2.1,0.3c-0.2-0.1-0.3-0.2-0.5-0.3c-0.4-0.2-0.9-0.1-1.3-0.1l0-0.1c0.4-1.3-0.3-2.7-1.5-3.1
			c-0.9-0.3-1.8,0-2.4,0.6c-0.2-0.2-0.4-0.4-0.7-0.5c-0.8-0.4-1.7-0.2-2.4,0.3c-3-2.2-5.4-4.9-7.1-8c-1.4-2.4-2.5-4.7-3.5-7
			l-4.5,1.8c1.1,2.4,2.3,5,3.8,7.6c2.1,3.7,4.9,6.9,8.4,9.5c-0.7-0.2-1.5-0.5-2.3-0.7c-11.3-3.6-18.4-7.6-22.9-11.2l-5.1,2.1
			c5.8,5.3,14.8,10,26.5,13.8c0.9,0.3,1.7,0.6,2.6,0.8l-0.3,0.8c-0.5,1.2,0,2.7,1.3,3.2c0.3,0.1,0.6,0.2,1,0.2
			c0.5,0,0.9-0.1,1.3-0.4c0.2,0.8,0.7,1.5,1.6,1.8c0.3,0.1,0.5,0.1,0.8,0.1c0.4,0,0.9-0.1,1.2-0.4c0.3,0.5,0.7,0.9,1.3,1.1
			c0.3,0.1,0.5,0.1,0.8,0.1c0.5,0,1-0.2,1.4-0.5c0.2,0.1,0.4,0.3,0.6,0.3c0.3,0.1,0.5,0.1,0.8,0.1c0.1,0,0.2,0,0.3-0.1
			c0.3,0.7,0.8,1.2,1.5,1.5c0.2,0.1,0.5,0.1,0.7,0.1c0.5,0,1.1-0.2,1.5-0.5c0.2,0.1,0.4,0.3,0.6,0.4c0.3,0.1,0.6,0.2,0.8,0.2
			c1,0,1.9-0.6,2.3-1.6l0.2-0.5l5,1.7l1.2-3.7c0.4,0.1,0.8,0.1,1.3,0.1c12.2,1.3,24.7-0.1,33.1-1.2c4.5-0.6,8.8-1.8,13.4-3.1
			c11.8-3.3,24-6.8,41.1-0.1c-1.8,2.4-3.5,4.9-5.1,7.3c-6.4,9.7-13,19.7-29.7,22.2c-12.9,1.9-32.8-4.1-53.8-10.5
			c-24.2-7.3-49.2-14.9-66.2-10.8c-30.9,7.3-56.2,23.8-57.3,24.6l2.9,4.1c0.3-0.2,25.6-16.7,55.5-23.8c15.7-3.7,40.1,3.6,63.7,10.8
			c21.6,6.5,42,12.7,56,10.6c18.8-2.8,26.4-14.3,33-24.3c1.9-2.8,3.6-5.5,5.6-8c1.7,0.8,3.4,1.7,5.2,2.7
			c15.9,8.8,26.3,11.1,31.9,6.8C580.4,533.5,581.6,528.8,580.3,523.5z M574.2,532.1c-1.7,1.3-7.8,3.3-26.5-7.2
			c-1.4-0.8-2.8-1.5-4.2-2.2c1.3-1.2,2.7-2.3,4.2-3.2c9.2-5.5,16.4-4,19.9-2.5c4.6,1.9,7.3,5.3,7.9,7.7
			C576.2,527.3,576.2,530.6,574.2,532.1z"/>
		<path class="st6" d="M396.9,485.1c-1.3,0.9-2.5,1.9-4.8,4.2c-1.7-0.1-3.4-1-4.2-2.6c0.2-0.2,0.9-1,1.1-1.2
			c2.6-2.7,3.8-3.6,5.7-4.9c2.2-1.5,5.6-3.2,8.6-1c3.3,2.5,4.7,6.1,7,12.1c0.6,1.5,1.2,3.1,1.9,4.7l-4.5,1.8
			c-0.7-1.7-1.3-3.3-1.9-4.8c-0.7-1.8-1.4-3.5-2-5C402.4,485.3,399.8,483.4,396.9,485.1"/>
		<path class="st6" d="M402.2,487c-0.4-0.6-1.7-2-3.3-1.9c-1.2,0.1-1.9,0.6-2.2,0.9c0,0,0,0,0,0.1c-0.4,1.5-1.4,2.9-3,3.5
			c-0.7,0.3-1.4,0.4-2.2,0.3c-1.7-0.1-3.3-1.1-4.2-2.6c-0.1-0.2-0.2-0.3-0.3-0.5c-1-2.6,0.2-5.6,2.8-6.6c1.4-0.6,3-0.4,4.2,0.2
			c0.6-0.4,2.8-1.9,4.8-2.2c1.9-0.3,3.2,0.1,3.8,0.4c-3.1-5.4-9.7-7.8-15.6-5.5c-6.5,2.6-9.6,10-7,16.4c0.9,2.2,2.3,3.9,4.1,5.3
			c1.5,1.1,3.2,2,5,2.4c2.4,0.5,5,0.4,7.4-0.6c3.3-1.3,5.7-4,6.9-7.1C403.3,488.9,402.9,487.9,402.2,487z"/>
	</g>
</g>
</svg>
