<svg id="Layer_1" data-name="Layer 1" xmlns="http://www.w3.org/2000/svg" viewBox="0 0 415.11 55"><defs><style>.cls-1{fill:#4d4d4f;}.cls-2{fill:#a6a8ab;}.cls-3{fill:#bbbdbf;}.cls-4{fill:#6d6e70;}.cls-5{fill:#929497;}.cls-6{fill:#fe5000;}.cls-7{fill:#404041;}</style></defs><title>Artboard 1</title><polygon class="cls-1" points="20.9 30.4 20.9 54.5 0 42.4 20.9 30.4"/><polygon class="cls-2" points="20.9 6.3 20.9 30.4 0 18.3 20.9 6.3"/><polyline class="cls-3" points="20.9 30.4 41.8 42.4 41.8 18.3 20.9 30.4"/><polyline class="cls-4" points="20.9 30.4 0 42.4 0 18.3 20.9 30.4"/><polyline class="cls-5" points="20.9 30.4 20.9 54.5 41.8 42.4 20.9 30.4"/><path class="cls-6" d="M24.5,9.1a8.08,8.08,0,0,1,1.2-4.7,8.78,8.78,0,0,1,15.2,8.8,9.49,9.49,0,0,1-3.5,3.4L24.5,24Zm13,2.1a4.8,4.8,0,0,0-1.8-6.7A4.93,4.93,0,0,0,29,6.3a4.84,4.84,0,0,0-.7,2.6A5,5,0,0,0,30.8,13a4.84,4.84,0,0,0,4.8.1A3.9,3.9,0,0,0,37.5,11.2Z"/><path class="cls-7" d="M274.2,48.7h4.6c.2,0,.3-.2.4-.3s.1-.2,0-.2c-.8-1.6-5.2-10.2-6.6-12.8l-.1-.3.3-.1a9.48,9.48,0,0,0,2.7-1.7,11,11,0,0,0,3.3-5.8,12.47,12.47,0,0,0,.1-4.7,10.29,10.29,0,0,0-4.1-6.7,9.75,9.75,0,0,0-5.1-1.9H253.3c-.6,0-.7.1-.7.7v33c0,.6.1.7.7.7h5c.6,0,.7-.1.7-.7V35.8h5.7a.87.87,0,0,1,.9.5c.1.2.9,1.7,1.8,3.6,1.3,2.6,3.1,6.1,4.1,8a1.16,1.16,0,0,0,1.2.8ZM259,29.9V20h9.2a4.27,4.27,0,0,1,4.1,3.3,6.65,6.65,0,0,1-.2,4.2,3.84,3.84,0,0,1-3.6,2.5h0Z"/><path class="cls-7" d="M104.6,14.2c-.6,0-.7.1-.7.7v33c0,.6.1.7.7.7H127c.6,0,.7-.1.7-.7V43.6c0-.6-.1-.7-.7-.7H110.3V34.2h13.3c.6,0,.7-.1.7-.7V29.4c0-.6-.1-.7-.7-.7H110.3V20H127c.6,0,.7-.1.7-.7V15c0-.6-.1-.7-.7-.7H104.6Z"/><path class="cls-7" d="M326.9,14.2c-.6,0-.7.1-.7.7v33c0,.6.1.7.7.7h22.4c.6,0,.7-.1.7-.7V43.6c0-.6-.1-.7-.7-.7H332.6V34.2h13.3c.6,0,.7-.1.7-.7V29.4c0-.6-.1-.7-.7-.7H332.6V20h16.7c.6,0,.7-.1.7-.7V15c0-.6-.1-.7-.7-.7H326.9Z"/><path class="cls-7" d="M149.7,13.8a17.7,17.7,0,1,0,17.6,17.7A17.65,17.65,0,0,0,149.7,13.8Zm0,29.5c-6.2,0-11.2-5.3-11.2-11.9s5-11.9,11.2-11.9,11.2,5.3,11.2,11.9S155.9,43.3,149.7,43.3Z"/><path class="cls-7" d="M228.2,13.8a17.7,17.7,0,1,0,17.6,17.7A17.65,17.65,0,0,0,228.2,13.8Zm0,29.5C222,43.3,217,38,217,31.5s5-11.9,11.2-11.9,11.2,5.3,11.2,11.9S234.4,43.3,228.2,43.3Z"/><path class="cls-7" d="M80.2,13.8A17.7,17.7,0,1,0,97.8,31.5V29.4c0-.6-.1-.7-.7-.7H79.6c-.6,0-.7.1-.7.7v4.1c0,.3,0,.5.1.6s.3.1.6.1H91.1l-.1.6a11.38,11.38,0,0,1-10.8,8.5C74.1,43.3,69,38,69,31.5s5-11.9,11.2-11.9a10.91,10.91,0,0,1,7.3,2.8c.5.5.7.5,1.1,0l3.2-3.2c.5-.5.5-.6,0-1.1A17.53,17.53,0,0,0,80.2,13.8Z"/><path class="cls-7" d="M302.6,13.8a17.7,17.7,0,1,0,17.6,17.7V29.4c0-.6-.1-.7-.7-.7H302c-.6,0-.7.1-.7.7v4.1c0,.3,0,.5.1.6s.3.1.6.1h11.5l-.1.6a11.38,11.38,0,0,1-10.8,8.5c-6.2,0-11.2-5.3-11.2-11.9s5-11.9,11.2-11.9a10.91,10.91,0,0,1,7.3,2.8c.5.5.7.5,1.1,0l3.2-3.2c.5-.5.5-.6,0-1.1A18.16,18.16,0,0,0,302.6,13.8Z"/><path class="cls-7" d="M180.9,26c.1,0,.1,0,.2.1,2.2,1.4,12.7,8.3,15.6,10.2a1.25,1.25,0,0,1,.6,1.1V48.1c0,.6.1.7.7.7h5c.6,0,.7-.1.7-.7v-33c0-.6-.1-.7-.7-.7h-5c-.6,0-.7.1-.7.7V29.3L174.8,14.1a.76.76,0,0,0-.4-.1.52.52,0,0,0-.2.4V48.1c0,.6.1.7.7.7h5c.6,0,.7-.1.7-.7V26Z"/></svg>