<?xml version="1.0" encoding="utf-8"?>
<svg version="1.1" xmlns="http://www.w3.org/2000/svg" xmlns:xlink="http://www.w3.org/1999/xlink" x="0px" y="0px"
	 viewBox="0 0 34 35" width="34" height="35" style="enable-background:new 0 0 34 35;" xml:space="preserve">
<style type="text/css">
	.st0{fill:#B0A9A2;}
</style>
<g>
	<path class="st0" d="M23.6,22.8c2.2-2.4,3.6-5.7,3.6-9.2C27.2,6.1,21.1,0,13.6,0C6.1,0,0,6.1,0,13.6c0,7.5,6.1,13.6,13.6,13.6
		c3.1,0,5.9-1,8.1-2.7l10.1,10.1c0.2,0.2,0.6,0.4,0.9,0.4c0.3,0,0.6-0.1,0.9-0.4c0.5-0.5,0.5-1.3,0-1.7L23.6,22.8z M2.5,13.6
		c0-6.1,5-11.1,11.1-11.1c6.1,0,11.1,5,11.1,11.1s-5,11.1-11.1,11.1S2.5,19.7,2.5,13.6L2.5,13.6z"/>
</g>
</svg>
